<svg xmlns="http://www.w3.org/2000/svg" viewBox="4100 392.5 87.04 72.725">
  <defs>
    <style>
      .cls-1 {
        stroke: #000;
        stroke-miterlimit: 10;
        stroke-width: 4px;
      }
    </style>
  </defs>
  <g id="Group_340" data-name="Group 340" transform="translate(4099.961 392.525)">
    <path id="Path_229" data-name="Path 229" class="cls-1" d="M84.132,17.756q-6.9-5.42-13.773-10.821A22.286,22.286,0,0,0,56.569,2.015q-13.013-.08-26.025,0A20.807,20.807,0,0,0,17.915,6.129C12.854,9.9,7.935,13.874,2.962,17.773c-1.181.912-1.216,1.681-.179,2.737q5.366,5.366,10.75,10.75c1.127,1.109,1.7,1.109,2.844-.036,1.681-1.681,3.363-3.381,5.062-5.062.161-.161.358-.3.644-.554V68.8c0,1.359.465,1.9,1.681,1.9H63.383c1.109,0,1.61-.537,1.646-1.663V25.483c2.057,2.057,3.917,3.935,5.8,5.813,1.055,1.055,1.681,1.055,2.719.018l10.75-10.75C85.384,19.455,85.348,18.721,84.132,17.756ZM72.058,28.434a4.91,4.91,0,0,1-.447-.394c-2.236-2.236-4.454-4.472-6.69-6.707a1.613,1.613,0,0,0-1.9-.59c-.751.322-.876.948-.876,1.7v45.4h-37.2V22.245a1.457,1.457,0,0,0-2.594-1.055c-2.218,2.218-4.436,4.418-6.636,6.636a7.205,7.205,0,0,0-.554.68c-3.148-3.184-6.207-6.242-9.319-9.355.859-.662,1.842-1.449,2.844-2.236,3.613-2.826,7.173-5.724,10.857-8.46a19.054,19.054,0,0,1,12.61-3.559v.036c.286-.018.554-.036.841-.036a2.191,2.191,0,0,1,.34-.036h1.073a1.02,1.02,0,0,1,.233.018c.233,0,.465.018.68.018H52.49a24.871,24.871,0,0,1,3.828-.25,8.949,8.949,0,0,1,2.808.447,16.84,16.84,0,0,1,5.33,1.592,20.78,20.78,0,0,1,3.434,2.057C72.255,12.1,76.584,15.52,80.93,18.918c.143.107.268.233.34.286C78.229,22.245,75.189,25.3,72.058,28.434Z" transform="translate(0)"/>
  </g>
</svg>
