<svg id="Group_397" data-name="Group 397" xmlns="http://www.w3.org/2000/svg" viewBox="0 0 33.157 33.381">
  <defs>
    <style>
      .cls-1 {
        fill: #44b1de;
      }
    </style>
  </defs>
  <path id="Path_951" data-name="Path 951" class="cls-1" d="M273.215,3.307c.518.5,1.027,1.018,1.536,1.517l.622.622c.829.829,1.244,1.244,1.8,1.244h.028c.565-.019.97-.462,1.771-1.357a2.537,2.537,0,0,0,.075-3.467A5.977,5.977,0,0,0,276.757.019l-.1-.019h-1.046l-.085.028A5.377,5.377,0,0,0,273.7,1.366c-.17.16-.339.339-.518.49a1,1,0,0,0-.377.688A1.079,1.079,0,0,0,273.215,3.307ZM276.484.942a5.241,5.241,0,0,1,1.837,1.545,1.613,1.613,0,0,1-.066,2.224c-.481.528-.933,1.036-1.093,1.036s-.612-.452-1.131-.97c-.2-.2-.386-.4-.584-.584l-.028-.028c-.5-.509-1.018-1.027-1.545-1.536a.311.311,0,0,1-.056-.057h0c.2-.17.377-.349.556-.528A4.878,4.878,0,0,1,275.8.952h.688Z" transform="translate(-247.098)"/>
  <path id="Path_952" data-name="Path 952" class="cls-1" d="M65.851,64.53l3.967-3.967c.122-.122.245-.254.377-.4.057-.066.122-.132.188-.207l.311-.33-.33-.32c-.32-.32-.641-.631-.952-.942l-.038-.038c-.886-.867-1.724-1.7-2.553-2.553a1.019,1.019,0,0,0-.735-.377,1.07,1.07,0,0,0-.744.386c-6.972,7-12.361,12.39-17.458,17.458a1.075,1.075,0,0,0-.386.763,1.117,1.117,0,0,0,.433.782l.038.038c.97.933,1.979,1.9,2.9,2.911a1.266,1.266,0,0,0,.876.5h.019a1.332,1.332,0,0,0,.914-.5C57.06,73.33,61.526,68.854,65.851,64.53Zm3.543-4.88c-.075.085-.16.17-.236.245l-3.967,3.967-.038.038C60.838,68.214,56.382,72.67,52.01,77.07a1.429,1.429,0,0,1-.245.217,1.1,1.1,0,0,1-.2-.179c-.942-1.027-1.96-2.007-2.94-2.958l-.047-.038L48.468,74a.771.771,0,0,0,.075-.085c5.116-5.078,10.505-10.468,17.487-17.468.028-.028.057-.047.075-.066a.16.16,0,0,1,.057.057C67,57.3,67.886,58.17,68.734,59l.057.057C68.988,59.244,69.2,59.451,69.393,59.649Z" transform="translate(-43.022 -50.18)"/>
  <path id="Path_953" data-name="Path 953" class="cls-1" d="M193.828,188.736a5.459,5.459,0,0,0-4.419-1.95,1.294,1.294,0,0,1-1.14-.462c-.735-.754-1.489-1.5-2.224-2.224l-.009-.009c-.707-.7-1.442-1.423-2.148-2.148a1.182,1.182,0,0,0-.829-.443,1.12,1.12,0,0,0-.791.424c-.933.989-1.931,2-3.062,3.062a1.073,1.073,0,0,0-.405.763,1.162,1.162,0,0,0,.424.791c.537.518,1.074,1.065,1.6,1.592.725.735,1.479,1.5,2.252,2.214a2.856,2.856,0,0,1,1.083,2.318,5.168,5.168,0,0,0,2.129,4.033,5.328,5.328,0,0,0,3.156,1.083,4.486,4.486,0,0,0,1.234-.17l.773-.217-.575-.565-.744-.744c-.641-.641-1.244-1.244-1.875-1.856-.207-.2-.226-.292-.188-.48l.009-.028c.236-1.244.358-1.865.66-2.176s.933-.452,2.176-.725a.631.631,0,0,0,.207-.066c.122-.066.17-.094.415.17.6.631,1.215,1.244,1.865,1.884l.791.791.612.612.179-.848A5.36,5.36,0,0,0,193.828,188.736Zm-6.68,4.815-.009.028a1.382,1.382,0,0,0,.462,1.338c.631.6,1.225,1.206,1.866,1.847l.085.085a4.339,4.339,0,0,1-2.7-.9,4.246,4.246,0,0,1-1.752-3.288,3.814,3.814,0,0,0-1.376-3c-.754-.707-1.507-1.46-2.224-2.2-.528-.528-1.065-1.074-1.611-1.611a.946.946,0,0,1-.1-.113l.085-.085c1.14-1.084,2.158-2.092,3.1-3.1a.945.945,0,0,1,.113-.1c.028.028.075.066.151.141.707.725,1.442,1.451,2.158,2.158l.009.009c.725.725,1.479,1.47,2.214,2.214a2.246,2.246,0,0,0,1.856.744,4.508,4.508,0,0,1,3.656,1.611,4.432,4.432,0,0,1,1.055,2.911l-.1-.1c-.641-.641-1.253-1.244-1.847-1.875a1.211,1.211,0,0,0-1.479-.386.035.035,0,0,0-.028.009C187.854,190.535,187.685,190.705,187.148,193.55Z" transform="translate(-161.954 -164.4)"/>
  <path id="Path_954" data-name="Path 954" class="cls-1" d="M17.819,23.1a2.928,2.928,0,0,0,2.073-.829,2.87,2.87,0,0,0,.839-2.045,2.913,2.913,0,0,0-2.892-2.93h-.009a2.919,2.919,0,0,0-2.93,2.892,2.855,2.855,0,0,0,.82,2.035A2.893,2.893,0,0,0,17.8,23.1Zm.009-5.059.009.188a1.962,1.962,0,0,1,1.95,1.988,1.913,1.913,0,0,1-.556,1.376,1.964,1.964,0,0,1-1.4.556h-.009a2.011,2.011,0,0,1-1.423-.594A1.934,1.934,0,0,1,15.84,20.2a2.016,2.016,0,0,1,1.988-1.969v-.188Z" transform="translate(-13.494 -15.67)"/>
  <path id="Path_955" data-name="Path 955" class="cls-1" d="M3.533,11.591a1.491,1.491,0,0,1,.857.462c.763.773,1.536,1.536,2.28,2.289,1.234,1.234,2.506,2.506,3.75,3.778a1.159,1.159,0,0,0,.81.433h.009a1.15,1.15,0,0,0,.81-.443c1.055-1.112,2.035-2.092,3.006-3.006a1.129,1.129,0,0,0,.433-.791,1.218,1.218,0,0,0-.443-.829c-1.027-1.008-2.063-2.045-3.062-3.043l-.019-.019c-.9-.9-1.818-1.818-2.742-2.723A2.446,2.446,0,0,1,8.48,6.4,4.182,4.182,0,0,0,3.712,3.14,4.263,4.263,0,0,0,0,7.4,4.178,4.178,0,0,0,3.533,11.591ZM.942,7.4A3.332,3.332,0,0,1,3.825,4.072a3.277,3.277,0,0,1,3.74,2.516A3.36,3.36,0,0,0,8.574,8.35c.923.9,1.847,1.837,2.742,2.732l.019.019c1,1,2.026,2.035,3.053,3.034a1.581,1.581,0,0,1,.141.151.62.62,0,0,1-.113.113c-.989.923-1.979,1.922-3.053,3.043a1.143,1.143,0,0,1-.132.122,1.01,1.01,0,0,1-.141-.122C9.836,16.16,8.564,14.888,7.33,13.654c-.735-.735-1.507-1.5-2.271-2.271a2.3,2.3,0,0,0-1.366-.725h0A3.245,3.245,0,0,1,.942,7.4Z" transform="translate(0 -2.81)"/>
  <path id="Path_956" data-name="Path 956" class="cls-1" d="M24.21,257.376c-.254.65-.509,1.328-.763,2l-.009.028a.87.87,0,0,0,.16,1.027c.462.452.952.942,1.592,1.592a.819.819,0,0,0,.584.264,1.075,1.075,0,0,0,.4-.085c.688-.273,1.394-.537,2.063-.791l.066-.028c.217-.085.433-.17.65-.245l.678-.254L24.738,256Zm.886.32,2.827,2.827-.038.009c-.678.254-1.385.518-2.073.791-.6-.612-1.074-1.083-1.526-1.526a.134.134,0,0,0,.019-.057l.009-.038c.254-.678.518-1.347.763-2Z" transform="translate(-21.139 -231.88)"/>
  <path id="Path_957" data-name="Path 957" class="cls-1" d="M251.74,32.365a.25.25,0,0,0,.057.047l.019.019h0c.367.377.744.754,1.112,1.112.678.669,1.376,1.366,2.045,2.073a1.026,1.026,0,0,0,.744.386h0a1.088,1.088,0,0,0,.791-.462l.019-.028a1.067,1.067,0,0,1,.1-.1l.009-.009a1,1,0,0,0,.4-.744,1.05,1.05,0,0,0-.4-.754c-.754-.7-1.489-1.451-2.2-2.167-.311-.311-.622-.631-.933-.942-.075-.075-.16-.151-.273-.254l-.009-.009c-.057-.057-.132-.122-.207-.2l-.358-.33-.556.641c-.179.2-.349.4-.518.594a.766.766,0,0,0-.207.575A.835.835,0,0,0,251.74,32.365Zm.678-.669c.1-.113.2-.226.3-.349a1.282,1.282,0,0,1,.113.113c.3.3.612.612.914.923l.019.019c.716.735,1.46,1.489,2.233,2.2l.057.057-.066.066c-.047.047-.1.094-.151.151l-.019.028a1.246,1.246,0,0,1-.113.113l-.047-.047c-.678-.716-1.385-1.413-2.063-2.092l-1.131-1.131A.114.114,0,0,1,252.418,31.7Z" transform="translate(-227.686 -27.173)"/>
  <path id="Path_958" data-name="Path 958" class="cls-1" d="M7.4,304.752l3.458-.952-2.6-2.6Zm1.385-1.7.273.273-.358.094Z" transform="translate(-6.703 -272.822)"/>
</svg>
