<svg xmlns="http://www.w3.org/2000/svg" viewBox="0 0 11.63 8.267">
  <defs>
    <style>
      .cls-1 {
        fill: #c6c9cf;
      }
    </style>
  </defs>
  <g id="Mail-Icon" transform="translate(0 -0.181)">
    <g id="Group" transform="translate(1.875 4.125)">
      <path id="Shape" class="cls-1" d="M2.345,2.4a.186.186,0,0,1-.128-.051L.059.324A.187.187,0,1,1,.316.051L2.474,2.075a.187.187,0,0,1-.129.324Z" transform="translate(5.196 0.042)"/>
      <path id="Shape-2" data-name="Shape" class="cls-1" d="M.188,2.4a.187.187,0,0,1-.129-.324L2.218.051a.187.187,0,1,1,.257.273L.316,2.348A.186.186,0,0,1,.188,2.4Z" transform="translate(0.151 0.042)"/>
    </g>
    <path id="Shape-3" data-name="Shape" class="cls-1" d="M10.692,8.267H.938A.938.938,0,0,1,0,7.331V.938A.939.939,0,0,1,.938,0h9.754a.939.939,0,0,1,.938.938V7.331A.938.938,0,0,1,10.692,8.267ZM.938.375A.563.563,0,0,0,.375.938V7.331a.563.563,0,0,0,.563.563h9.754a.563.563,0,0,0,.563-.562V.938a.563.563,0,0,0-.562-.562Z" transform="translate(0 0.181)"/>
    <path id="Shape-4" data-name="Shape" class="cls-1" d="M5.568,4.777a1.049,1.049,0,0,1-.689-.248L.064.329A.188.188,0,1,1,.311.046l4.815,4.2a.7.7,0,0,0,.884,0L10.819.053a.188.188,0,0,1,.247.283L6.256,4.529A1.048,1.048,0,0,1,5.568,4.777Z" transform="translate(0.247 0.48)"/>
  </g>
</svg>
