<svg xmlns="http://www.w3.org/2000/svg" viewBox="4100.238 271.5 87.044 72.725">
  <defs>
    <style>
      .cls-1 {
        stroke: #000;
        stroke-miterlimit: 10;
        stroke-width: 4px;
      }
    </style>
  </defs>
  <g id="Group_339" data-name="Group 339" transform="translate(4100.338 271.525)">
    <path id="Path_228" data-name="Path 228" class="cls-1" d="M64.9,25.483V69.037c-.036,1.127-.537,1.663-1.646,1.663H23.632c-1.2,0-1.663-.537-1.681-1.9v-43.2c-.286.25-.483.376-.644.554-1.681,1.681-3.381,3.363-5.062,5.062-1.145,1.145-1.735,1.163-2.844.036Q8.035,25.894,2.651,20.51c-1.055-1.055-1-1.807.179-2.737C7.8,13.874,12.721,9.9,17.783,6.129A20.886,20.886,0,0,1,30.411,2.015q13.013-.08,26.025,0A22.141,22.141,0,0,1,70.227,6.934Q77.149,12.327,84,17.755c1.216.948,1.252,1.681.143,2.79L73.393,31.3c-1.037,1.037-1.663,1.037-2.719-.018C68.814,29.418,66.954,27.539,64.9,25.483ZM62.035,67.8v-45.4c0-.733.125-1.377.876-1.7a1.613,1.613,0,0,1,1.9.59Q68.134,24.651,71.5,28a4.908,4.908,0,0,0,.447.394l9.23-9.23c-.072-.054-.2-.179-.34-.286-4.346-3.4-8.657-6.833-13.039-10.178A20.779,20.779,0,0,0,64.36,6.648a17.212,17.212,0,0,0-6.672-1.717,13.36,13.36,0,0,1-12.234,11.34,12.225,12.225,0,0,1-7.673-2.218,13.136,13.136,0,0,1-5.742-9.176,18.857,18.857,0,0,0-12.61,3.559C15.762,11.191,12.2,14.071,8.572,16.9L5.728,19.133c3.112,3.112,6.171,6.189,9.319,9.355a7.205,7.205,0,0,1,.554-.68q3.3-3.327,6.636-6.636a1.457,1.457,0,0,1,2.594,1.055V67.82C37.262,67.8,49.586,67.8,62.035,67.8ZM35.044,4.895c.125,4.919,5.133,8.89,10.643,8.532,4.758-.3,9.373-4.686,8.961-8.532Z" transform="translate(0 0)"/>
  </g>
</svg>
