<svg xmlns="http://www.w3.org/2000/svg" viewBox="6152 505 19.433 33.5">
  <defs>
    <style>
      .cls-1 {
        fill: #fff;
      }

      .cls-2 {
        fill: #ff4848;
      }
    </style>
  </defs>
  <g id="Group_223" data-name="Group 223" transform="translate(6152.2 505)">
    <path id="Path_191" data-name="Path 191" class="cls-1" d="M0,23.582v9.367c0,.4.092.551.533.551,5.547-.018,11.075-.018,16.621,0,.386,0,.533-.073.533-.5-.018-6.263-.018-12.507,0-18.77,0-.459-.147-.569-.569-.551-5.492.018-10.983,0-16.475,0-.606,0-.606,0-.606.606C0,17.374,0,20.478,0,23.582ZM8.044,3.288c-.184-.092-.331-.165-.459-.239C6.575,2.461,5.565,1.892,4.573,1.3c-.294-.184-.441-.147-.606.165-.422.753-.845,1.524-1.3,2.259-.22.367-.2.551.2.771,4.39,2.535,8.779,5.106,13.169,7.659.533.312,1.084.606,1.653.937.533-.918,1.047-1.818,1.579-2.681.2-.331.184-.478-.165-.68-.918-.5-1.818-1.065-2.737-1.561-.349-.2-.441-.367-.2-.735.5-.808.937-1.653,1.451-2.443.22-.349.129-.478-.184-.661-1.635-.955-3.269-1.91-4.885-2.847C11.7.992,10.836.5,9.973,0,9.33,1.1,8.706,2.167,8.044,3.288Z" transform="translate(-0.163)"/>
    <path id="Path_192" data-name="Path 192" class="cls-2" d="M-.163,84.318V75.006c0-.606,0-.606.606-.606H16.917c.441,0,.588.11.569.551-.018,6.263-.018,12.507,0,18.77,0,.422-.147.5-.533.5-5.547-.018-11.075-.018-16.621,0-.441,0-.533-.129-.533-.551C-.145,90.562-.163,87.44-.163,84.318Zm4.683.018V77.6c0-.367-.073-.514-.478-.514-.367,0-.459.129-.459.5.018,4.463,0,8.926,0,13.389,0,.349.037.569.5.569s.441-.239.441-.551C4.5,88.781,4.52,86.558,4.52,84.336Zm4.61-.018v-6.74c0-.349-.092-.478-.459-.5-.422-.018-.459.184-.459.533V91.15c0,.239.073.367.349.367.533.018.569-.018.569-.551Zm4.628.018V77.6c0-.349-.073-.5-.459-.5s-.514.129-.5.5c.018.5,0,.973,0,1.469v11.92c0,.4.092.569.533.551s.4-.275.4-.551C13.758,88.762,13.758,86.54,13.758,84.336Z" transform="translate(0 -60.736)"/>
    <path id="Path_193" data-name="Path 193" class="cls-2" d="M19.257,3.288C19.918,2.167,20.542,1.1,21.185,0c.863.5,1.726.992,2.571,1.488,1.616.937,3.251,1.892,4.867,2.828.312.184.4.312.184.661-.514.79-.937,1.635-1.433,2.443-.239.367-.147.533.2.735.918.514,1.818,1.065,2.737,1.561.349.184.367.349.165.68-.533.863-1.029,1.763-1.579,2.681-.569-.331-1.12-.624-1.653-.937-4.39-2.553-8.761-5.124-13.169-7.659-.4-.239-.422-.422-.2-.771.459-.735.882-1.488,1.3-2.259.184-.294.331-.349.624-.165.992.606,2,1.175,3.012,1.745C18.944,3.122,19.073,3.177,19.257,3.288Zm2.59-.79c-.312.514-.606.973-.845,1.469-.055.092.055.367.147.422,1.359.808,2.737,1.6,4.114,2.388.2.129.331.092.441-.11.2-.367.422-.753.643-1.1.184-.275.11-.422-.165-.569-.716-.4-1.433-.826-2.13-1.231C23.316,3.361,22.6,2.939,21.846,2.5Z" transform="translate(-11.375)"/>
  </g>
</svg>
