<svg xmlns="http://www.w3.org/2000/svg" viewBox="0 0 22.14 20.617">
  <defs>
    <style>
      .cls-1 {
        fill: #fff;
      }
    </style>
  </defs>
  <g id="_69524" data-name="69524" transform="translate(-0.001 -15.047)">
    <g id="Group_549" data-name="Group 549" transform="translate(0.001 15.047)">
      <g id="Group_548" data-name="Group 548">
        <path id="Path_5768" data-name="Path 5768" class="cls-1" d="M21.769,26.364l-3.356-3.355V19.132a1.269,1.269,0,0,0-2.538,0V20.47l-2.5-2.5a3.339,3.339,0,0,0-4.615,0l-8.39,8.39a1.269,1.269,0,0,0,1.8,1.795l8.389-8.39a.749.749,0,0,1,1.027,0l8.391,8.391a1.269,1.269,0,1,0,1.8-1.795Z" transform="translate(-0.001 -17.047)"/>
        <path id="Path_5769" data-name="Path 5769" class="cls-1" d="M77.071,127.93a.623.623,0,0,0-.881,0l-7.38,7.378a.625.625,0,0,0-.183.441v5.381a2.287,2.287,0,0,0,2.286,2.286h3.654v-5.659h4.125v5.659h3.654a2.287,2.287,0,0,0,2.286-2.286V135.75a.622.622,0,0,0-.183-.441Z" transform="translate(-65.56 -122.8)"/>
      </g>
    </g>
  </g>
</svg>
