<svg id="Group_556" data-name="Group 556" xmlns="http://www.w3.org/2000/svg" viewBox="0 0 446.72 39.773">
  <defs>
    <style>
      .cls-1, .cls-2 {
        fill: #fff;
      }

      .cls-1 {
        fill-rule: evenodd;
      }
    </style>
  </defs>
  <g id="Group_2" data-name="Group 2" transform="translate(0 0)">
    <path id="Path_1" data-name="Path 1" class="cls-1" d="M32.135,34.383l-11.384-12.1,8.5-8.934L24.5,8.3,0,34.383H9.367l6.773-7.061,6.629,7.061Z" transform="translate(0 3.661)"/>
    <path id="Path_2" data-name="Path 2" class="cls-1" d="M46.512,15.131l4.755-5.044L41.756,0,18.7,24.642l12.681,13.4h9.367l-12.681-13.4,13.69-14.7Z" transform="translate(8.247)"/>
    <path id="Path_3" data-name="Path 3" class="cls-1" d="M70.173,33.457,48.557,10.4,35.3,24.522l4.755,5.044,8.5-9.079L60.806,33.457Z" transform="translate(15.568 4.587)"/>
    <g id="Group_1" data-name="Group 1" transform="translate(96.837 15.131)">
      <path id="Path_4" data-name="Path 4" class="cls-2" d="M362.924,11H357.88l-5.332,6.773,2.594,3.17Zm-45.1,9.8H306V11h-3.891V34.633H306V24.69h11.816v9.943h3.891V11h-3.891Zm10.808,13.834h3.891V11h-3.891Zm22.48-14.987h0l-1.3-1.585-.144-.144-5.332-6.773h-5.044l9.223,11.816-9.223,11.816h5.044l6.773-8.646,6.773,8.646h5.044l-7.782-9.8ZM287.269,11H275.453V34.633h3.891V26.707h7.926a7.614,7.614,0,0,0,5.62-2.306,7.525,7.525,0,0,0,2.306-5.476A7.873,7.873,0,0,0,287.269,11m2.882,10.664a3.937,3.937,0,0,1-2.738,1.153h-7.926V14.891h7.926a3.937,3.937,0,0,1,2.738,1.153,4.024,4.024,0,0,1,1.153,2.882,3.937,3.937,0,0,1-1.153,2.738m-45.1,12.969h4.467l1.153-2.306,2.738-5.62h0l3.458-6.917,2.162,4.323,3.314,6.629.721,1.3.144.144,1.153,2.45h4.467L256.864,11Zm-43.375-9.8h5.908v3.314a7.043,7.043,0,0,1-2.594,2.017,8.548,8.548,0,0,1-3.314.721,7.873,7.873,0,0,1-7.926-7.926,7.087,7.087,0,0,1,2.306-5.476,8.216,8.216,0,0,1,5.62-2.306,7.614,7.614,0,0,1,5.62,2.306l2.882-2.738a13.421,13.421,0,0,0-3.747-2.594,12.482,12.482,0,0,0-4.611-.865,11.311,11.311,0,0,0-8.358,3.458A11.543,11.543,0,0,0,190,23.1a11.311,11.311,0,0,0,3.458,8.358,11.311,11.311,0,0,0,8.358,3.458,10.97,10.97,0,0,0,3.026-.432,8.921,8.921,0,0,0,2.738-1.009,8.792,8.792,0,0,0,2.306-1.729,25.054,25.054,0,0,0,1.873-2.162v-8.5h-9.943v3.747Zm35.017-1.585a7.072,7.072,0,0,0,1.3-4.467,7.087,7.087,0,0,0-2.306-5.476A7.525,7.525,0,0,0,230.2,11H218.388V34.633h3.891V26.707h6.773l4.611,7.926h4.467l-4.9-8.5a7.5,7.5,0,0,0,3.459-2.882m-3.6-1.585a3.937,3.937,0,0,1-2.738,1.153h-7.926V15.035h7.926a3.689,3.689,0,0,1,2.738,1.153,3.828,3.828,0,0,1,0,5.476" transform="translate(-13.041 -10.279)"/>
      <path id="Path_5" data-name="Path 5" class="cls-2" d="M93.715,14.535h15.707V10.644H93.715Zm34.3,4.611h0l-6.629-8.5h-5.044l9.223,11.816-9.223,11.817h5.044l6.629-8.646,6.773,8.646h5.044l-9.223-11.817Zm-34.3,5.188h15.707V20.443H93.715ZM67.2,14.535h7.926v19.6h3.891v-19.6H86.8V10.644H67.2Zm38.908,15.707H93.571v3.891h15.707V30.242Zm23.345-12.969,2.594,3.17,7.637-9.8H134.64Zm88.623,12.969H206.259v3.891h15.707V30.242Zm-11.816-5.908h15.707V20.443H206.259Zm0-9.8h15.707V10.644H206.259ZM187.67,10.5h-3.891V33.989h15.707V30.1H187.67Zm-41.213,4.035h7.926v19.6h3.891v-19.6h7.782V10.644h-19.6Zm26.515,19.6h3.891V10.5h-3.891Z" transform="translate(-67.2 -10.5)"/>
    </g>
  </g>
</svg>
