<svg xmlns="http://www.w3.org/2000/svg" viewBox="0 0 11.131 13.82">
  <defs>
    <style>
      .cls-1 {
        fill: #c6c9cf;
      }
    </style>
  </defs>
  <g id="Password-Icon" transform="translate(-0.379)">
    <path id="Shape" class="cls-1" d="M10.135,9.62H1a1,1,0,0,1-1-1V1A1,1,0,0,1,1,0h9.138a1,1,0,0,1,1,1V8.624A1,1,0,0,1,10.135,9.62ZM1,.482A.515.515,0,0,0,.482,1V8.623A.515.515,0,0,0,1,9.137h9.138a.514.514,0,0,0,.514-.514V1a.515.515,0,0,0-.514-.515Z" transform="translate(0.379 4.2)"/>
    <path id="Shape-2" data-name="Shape" class="cls-1" d="M7.319,4.682a.241.241,0,0,1-.241-.241V3.78a3.3,3.3,0,0,0-6.594,0v.661a.241.241,0,0,1-.483,0V3.78a3.78,3.78,0,0,1,7.56,0v.661A.241.241,0,0,1,7.319,4.682Z" transform="translate(2.165)"/>
    <path id="Shape-3" data-name="Shape" class="cls-1" d="M1.562,4.923a.745.745,0,0,1-.744-.744V2.939a1.565,1.565,0,1,1,1.491,0V4.179A.748.748,0,0,1,1.562,4.923Zm0-4.441a1.081,1.081,0,0,0-.411,2.08.241.241,0,0,1,.15.222V4.179a.262.262,0,0,0,.525,0V2.785a.24.24,0,0,1,.149-.222A1.08,1.08,0,0,0,1.562.482Z" transform="translate(4.382 6.549)"/>
  </g>
</svg>
