<svg xmlns="http://www.w3.org/2000/svg" viewBox="0 0 306.031 306.032">
  <defs>
    <style>
      .cls-1 {
        fill: #44b1de;
      }

      .cls-2 {
        fill: #fff;
      }
    </style>
  </defs>
  <g id="resize" transform="translate(-1387.232 1943.808) rotate(-45)">
    <circle id="Ellipse_26" data-name="Ellipse 26" class="cls-1" cx="108.199" cy="108.199" r="108.199" transform="translate(2247.203 -285.359)"/>
    <g id="resize-2" data-name="resize" transform="translate(2144.143 -580.96) rotate(90)">
      <path id="path2993" class="cls-2" d="M60.4-3273.966a2.531,2.531,0,0,1-.8,1.841L33.04-3245.562l11.521,11.521a4.92,4.92,0,0,1,1.52,3.6,4.921,4.921,0,0,1-1.519,3.6,4.92,4.92,0,0,1-3.6,1.52H5.12a4.92,4.92,0,0,1-3.6-1.519,4.919,4.919,0,0,1-1.519-3.6v-35.844a4.922,4.922,0,0,1,1.52-3.6,4.92,4.92,0,0,1,3.6-1.52,4.919,4.919,0,0,1,3.6,1.52l11.521,11.521L46.8-3284.924a2.528,2.528,0,0,1,1.841-.8,2.528,2.528,0,0,1,1.841.8l9.122,9.119a2.53,2.53,0,0,1,.794,1.839Zm62.487-69.128v35.843a4.922,4.922,0,0,1-1.52,3.6,4.922,4.922,0,0,1-3.6,1.52,4.922,4.922,0,0,1-3.6-1.52l-11.521-11.521L76.1-3288.607a2.527,2.527,0,0,1-1.841.8,2.528,2.528,0,0,1-1.841-.8l-9.122-9.12a2.532,2.532,0,0,1-.8-1.841,2.531,2.531,0,0,1,.8-1.841l26.562-26.562-11.521-11.521a4.922,4.922,0,0,1-1.52-3.6,4.92,4.92,0,0,1,1.52-3.6,4.922,4.922,0,0,1,3.6-1.52h35.841a4.921,4.921,0,0,1,3.6,1.52,4.921,4.921,0,0,1,1.519,3.6Z" transform="translate(343.075 3074.785)"/>
    </g>
  </g>
</svg>
