<svg xmlns="http://www.w3.org/2000/svg" viewBox="0 0 13.957 12.974">
  <defs>
    <style>
      .cls-1 {
        fill: #c6c9cf;
        stroke: #aaaeb3;
      }
    </style>
  </defs>
  <g id="Search-Icon" transform="translate(0.501 0.5)">
    <path id="Shape" class="cls-1" d="M12.571,11.974a.407.407,0,0,1-.273-.106L9.148,8.958a5.793,5.793,0,0,1-3.623,1.253A5.334,5.334,0,0,1,0,5.105,5.334,5.334,0,0,1,5.525,0,5.334,5.334,0,0,1,11.05,5.105,4.881,4.881,0,0,1,9.694,8.453l3.149,2.91a.338.338,0,0,1,0,.5A.393.393,0,0,1,12.571,11.974ZM5.522.717A4.585,4.585,0,0,0,.773,5.105,4.586,4.586,0,0,0,5.522,9.5a4.586,4.586,0,0,0,4.75-4.391A4.585,4.585,0,0,0,5.522.717Z" transform="translate(0 0)"/>
  </g>
</svg>
